<svg width="42" height="42" viewBox="0 0 42 42" fill="none" xmlns="http://www.w3.org/2000/svg">
<path d="M13.5 19.5V13.5C13.5 11.5109 14.2902 9.60322 15.6967 8.1967C17.1032 6.79018 19.0109 6 21 6C22.9891 6 24.8968 6.79018 26.3033 8.1967C27.7098 9.60322 28.5 11.5109 28.5 13.5V19.5M10.5 19.5H31.5C33.1569 19.5 34.5 20.8431 34.5 22.5V33C34.5 34.6569 33.1569 36 31.5 36H10.5C8.84315 36 7.5 34.6569 7.5 33V22.5C7.5 20.8431 8.84315 19.5 10.5 19.5Z" stroke="#245B82" stroke-linecap="round" stroke-linejoin="round"/>
</svg>
