<svg width="104" height="104" viewBox="0 0 104 104" fill="none" xmlns="http://www.w3.org/2000/svg">
<circle cx="51.5789" cy="51.5789" r="48.0789" stroke="#1E313E" stroke-width="7"/>
<mask id="path-2-inside-1_4908_1477" fill="white">
<path d="M83.7105 51.5789C85.1493 51.5789 86.3259 50.4108 86.2181 48.976C85.8724 44.3762 84.6133 39.8821 82.5047 35.7599C79.9999 30.863 76.368 26.6309 71.908 23.412C67.448 20.193 62.2873 18.0791 56.8506 17.2444C52.2741 16.5417 47.6122 16.7623 43.1376 17.8833C41.7419 18.2329 41.004 19.7175 41.4572 21.0831V21.0831C41.9105 22.4487 43.3833 23.1763 44.7835 22.8452C48.4705 21.9732 52.2991 21.8171 56.0599 22.3946C60.681 23.1041 65.0676 24.9009 68.8586 27.637C72.6497 30.3731 75.7368 33.9704 77.8659 38.1328C79.5986 41.5202 80.6565 45.2031 80.9903 48.977C81.1171 50.4102 82.2716 51.5789 83.7105 51.5789V51.5789Z"/>
</mask>
<path d="M83.7105 51.5789C85.1493 51.5789 86.3259 50.4108 86.2181 48.976C85.8724 44.3762 84.6133 39.8821 82.5047 35.7599C79.9999 30.863 76.368 26.6309 71.908 23.412C67.448 20.193 62.2873 18.0791 56.8506 17.2444C52.2741 16.5417 47.6122 16.7623 43.1376 17.8833C41.7419 18.2329 41.004 19.7175 41.4572 21.0831V21.0831C41.9105 22.4487 43.3833 23.1763 44.7835 22.8452C48.4705 21.9732 52.2991 21.8171 56.0599 22.3946C60.681 23.1041 65.0676 24.9009 68.8586 27.637C72.6497 30.3731 75.7368 33.9704 77.8659 38.1328C79.5986 41.5202 80.6565 45.2031 80.9903 48.977C81.1171 50.4102 82.2716 51.5789 83.7105 51.5789V51.5789Z" stroke="#1E313E" stroke-width="14" mask="url(#path-2-inside-1_4908_1477)"/>
</svg>
