<svg width="42" height="42" viewBox="0 0 42 42" fill="none" xmlns="http://www.w3.org/2000/svg">
<path d="M3.31347 10.7887L21 0.57735L38.6865 10.7887V31.2113L21 41.4226L3.31347 31.2113V10.7887Z" stroke="#245B82"/>
<path d="M16.2492 15.5C16.3792 15.5 16.4792 15.54 16.5492 15.62C16.6292 15.7 16.6692 15.8 16.6692 15.92V25.52C16.6692 25.67 16.6192 25.79 16.5192 25.88C16.4292 25.96 16.3242 26 16.2042 26C16.1442 26 16.0792 25.99 16.0092 25.97C15.9392 25.94 15.8842 25.9 15.8442 25.85L9.15418 16.835L9.40918 16.7V25.595C9.40918 25.705 9.36918 25.8 9.28918 25.88C9.20918 25.96 9.10918 26 8.98918 26C8.85918 26 8.75418 25.96 8.67418 25.88C8.60418 25.8 8.56918 25.705 8.56918 25.595V15.95C8.56918 15.8 8.61418 15.69 8.70418 15.62C8.79418 15.54 8.89418 15.5 9.00418 15.5C9.06418 15.5 9.12918 15.515 9.19918 15.545C9.26918 15.565 9.32418 15.605 9.36418 15.665L15.9792 24.575L15.8292 24.845V15.92C15.8292 15.8 15.8692 15.7 15.9492 15.62C16.0392 15.54 16.1392 15.5 16.2492 15.5ZM19.9473 26C19.8073 26 19.6923 25.955 19.6023 25.865C19.5223 25.775 19.4823 25.67 19.4823 25.55V15.95C19.4823 15.83 19.5273 15.725 19.6173 15.635C19.7073 15.545 19.8123 15.5 19.9323 15.5H25.3923C25.5223 15.5 25.6273 15.545 25.7073 15.635C25.7973 15.715 25.8423 15.82 25.8423 15.95C25.8423 16.07 25.7973 16.175 25.7073 16.265C25.6273 16.345 25.5223 16.385 25.3923 16.385H20.3373L20.3973 16.295V20.285L20.3223 20.15H24.7173C24.8473 20.15 24.9523 20.195 25.0323 20.285C25.1223 20.365 25.1673 20.465 25.1673 20.585C25.1673 20.715 25.1223 20.82 25.0323 20.9C24.9523 20.98 24.8473 21.02 24.7173 21.02H20.2923L20.3973 20.9V25.55C20.3973 25.67 20.3523 25.775 20.2623 25.865C20.1823 25.955 20.0773 26 19.9473 26ZM31.3181 26C31.1781 26 31.0631 25.955 30.9731 25.865C30.8931 25.775 30.8531 25.67 30.8531 25.55V15.995H31.7831V25.55C31.7831 25.67 31.7381 25.775 31.6481 25.865C31.5581 25.955 31.4481 26 31.3181 26ZM27.7481 16.355C27.6281 16.355 27.5231 16.315 27.4331 16.235C27.3431 16.155 27.2981 16.05 27.2981 15.92C27.2981 15.8 27.3431 15.7 27.4331 15.62C27.5231 15.54 27.6281 15.5 27.7481 15.5H34.8881C35.0081 15.5 35.1131 15.54 35.2031 15.62C35.2931 15.7 35.3381 15.805 35.3381 15.935C35.3381 16.065 35.2931 16.17 35.2031 16.25C35.1131 16.32 35.0081 16.355 34.8881 16.355H27.7481Z" fill="#245B82"/>
</svg>
