<svg width="42" height="42" viewBox="0 0 42 42" fill="none" xmlns="http://www.w3.org/2000/svg">
<path d="M13.5 36H9C8.20435 36 7.44129 35.6839 6.87868 35.1213C6.31607 34.5587 6 33.7956 6 33V22.5C6 21.7044 6.31607 20.9413 6.87868 20.3787C7.44129 19.8161 8.20435 19.5 9 19.5H13.5M24 16.5V10.5C24 9.30653 23.5259 8.16193 22.682 7.31802C21.8381 6.47411 20.6935 6 19.5 6L13.5 19.5V36H30.42C31.1435 36.0082 31.8456 35.7546 32.3969 35.286C32.9482 34.8174 33.3115 34.1654 33.42 33.45L35.49 19.95C35.5553 19.52 35.5263 19.081 35.405 18.6634C35.2838 18.2457 35.0732 17.8594 34.7878 17.5313C34.5024 17.2031 34.1491 16.9409 33.7524 16.7628C33.3556 16.5848 32.9249 16.4951 32.49 16.5H24Z" stroke="#245B82" stroke-linecap="round" stroke-linejoin="round"/>
</svg>
