<svg width="95" height="95" viewBox="0 0 95 95" fill="none" xmlns="http://www.w3.org/2000/svg">
<circle cx="46.5" cy="24.5" r="23.5" stroke="white" stroke-width="2"/>
<mask id="path-2-inside-1" fill="white">
<path d="M61.7625 24.5C62.446 24.5 63.0048 23.9452 62.9536 23.2636C62.7894 21.0787 62.1913 18.944 61.1898 16.986C60 14.66 58.2748 12.6497 56.1563 11.1207C54.0378 9.5917 51.5865 8.58762 49.0041 8.19112C46.8302 7.85734 44.6158 7.96214 42.4904 8.49459C41.8274 8.66067 41.4769 9.36587 41.6922 10.0145C41.9075 10.6632 42.6071 11.0088 43.2722 10.8515C45.0235 10.4373 46.8421 10.3632 48.6285 10.6375C50.8235 10.9745 52.9071 11.8279 54.7079 13.1276C56.5086 14.4273 57.975 16.136 58.9863 18.1131C59.8094 19.7221 60.3119 21.4715 60.4704 23.2641C60.5307 23.9449 61.079 24.5 61.7625 24.5Z"/>
</mask>
<path d="M61.7625 24.5C62.446 24.5 63.0048 23.9452 62.9536 23.2636C62.7894 21.0787 62.1913 18.944 61.1898 16.986C60 14.66 58.2748 12.6497 56.1563 11.1207C54.0378 9.5917 51.5865 8.58762 49.0041 8.19112C46.8302 7.85734 44.6158 7.96214 42.4904 8.49459C41.8274 8.66067 41.4769 9.36587 41.6922 10.0145C41.9075 10.6632 42.6071 11.0088 43.2722 10.8515C45.0235 10.4373 46.8421 10.3632 48.6285 10.6375C50.8235 10.9745 52.9071 11.8279 54.7079 13.1276C56.5086 14.4273 57.975 16.136 58.9863 18.1131C59.8094 19.7221 60.3119 21.4715 60.4704 23.2641C60.5307 23.9449 61.079 24.5 61.7625 24.5Z" stroke="white" stroke-width="4" mask="url(#path-2-inside-1)"/>
<circle cx="68" cy="57" r="11" stroke="white" stroke-width="2"/>
<circle cx="37" cy="75" r="19" stroke="white" stroke-width="2"/>
</svg>
